<svg xmlns="http://www.w3.org/2000/svg" viewBox="0 0 220 52" fill="none">
  <!-- Icône fond amber -->
  <rect x="0" y="4" width="44" height="44" rx="10" fill="#F59E0B"/>
  <!-- Clé à molette stylisée -->
  <g transform="translate(8, 10)">
    <path d="M20 4 C13.4 4 8 9.4 8 16 C8 19.2 9.3 22.1 11.4 24.2 L4.3 31.3 C3.5 32.1 3.5 33.4 4.3 34.2 C5.1 35 6.4 35 7.2 34.2 L14.3 27.1 C16.1 28.3 18.0 29 20 29 C26.6 29 32 23.6 32 17 C32 10.4 26.6 5 20 5 Z" fill="transparent"/>
    <!-- Corps de la clé simplifié -->
    <rect x="4" y="14" width="14" height="5" rx="2.5" fill="white"/>
    <rect x="10" y="8" width="5" height="17" rx="2.5" fill="white"/>
    <!-- Tête circulaire -->
    <circle cx="23" cy="10" r="6" fill="white"/>
    <circle cx="23" cy="10" r="3.5" fill="#F59E0B"/>
    <!-- Manche diagonal -->
    <rect x="7" y="22" width="5" height="12" rx="2.5" fill="white" transform="rotate(-45 7 22)"/>
  </g>
  <!-- Texte ReparFlow -->
  <text x="56" y="34" font-family="'Segoe UI', system-ui, -apple-system, sans-serif" font-size="22" font-weight="700" fill="white" letter-spacing="-0.5">Repar<tspan fill="#F59E0B">Flow</tspan></text>
</svg>
